<?xml version="1.0" encoding="utf-8"?>
<!-- Generator: Adobe Illustrator 15.0.0, SVG Export Plug-In . SVG Version: 6.00 Build 0)  -->
<!DOCTYPE svg PUBLIC "-//W3C//DTD SVG 1.1//EN" "http://www.w3.org/Graphics/SVG/1.1/DTD/svg11.dtd">
<svg version="1.1" id="Layer_1" xmlns="http://www.w3.org/2000/svg" xmlns:xlink="http://www.w3.org/1999/xlink" x="0px" y="0px"
	 width="450px" height="450px" viewBox="0 0 450 450" enable-background="new 0 0 450 450" xml:space="preserve">
<g opacity="0.05">
	<path d="M277.243,154.007c-0.792,0.642-1.572,1.294-2.334,1.969C275.671,155.301,276.451,154.648,277.243,154.007z"/>
	<path d="M274.909,155.976c-0.556,0.471-1.091,0.964-1.627,1.457C273.818,156.94,274.354,156.447,274.909,155.976z"/>
	<path d="M272.982,157.711c-0.31,0.267-0.589,0.546-0.878,0.814C272.404,158.246,272.693,157.979,272.982,157.711z"/>
	<path d="M272.104,158.525c-0.566,0.545-1.135,1.09-1.691,1.648C270.97,159.616,271.538,159.071,272.104,158.525z"/>
	<path d="M270.413,160.173l-10.707,10.707c3.65-3.65,7.543-6.902,11.612-9.802L270.413,160.173z"/>
	<path d="M77.694,138.76c-16.457,16.456-25.265,37.655-26.457,59.196c-1.376,24.901,7.434,50.261,26.457,69.284l21.413,21.413
		L249,438.546c35.479-35.479,35.479-93.001,0-128.479l-42.826-42.826L141.934,203c-35.479-35.479-35.479-93,0-128.48L77.694,138.76z
		"/>
	<path d="M163.347,53.107L141.934,74.52l64.24,64.24l21.413-21.413c11.809-11.81,31.018-11.81,42.827,0
		c11.809,11.81,11.809,31.017-0.001,42.827l0.905,0.905c-4.069,2.899-7.962,6.152-11.612,9.802
		c-35.478,35.478-35.478,93.001,0.001,128.48l74.946-74.946c23.116-23.117,34.882-53.32,35.374-83.683
		c0.514-31.671-11.263-63.513-35.374-87.624C287.426,5.88,210.574,5.879,163.347,53.107z"/>
	<path d="M141.934,203l64.24-64.24l-64.24-64.24C106.454,110,106.455,167.521,141.934,203z"/>
</g>
</svg>
