<?xml version="1.0" encoding="utf-8"?>
<!-- Generator: Adobe Illustrator 15.0.0, SVG Export Plug-In . SVG Version: 6.00 Build 0)  -->
<!DOCTYPE svg PUBLIC "-//W3C//DTD SVG 1.1//EN" "http://www.w3.org/Graphics/SVG/1.1/DTD/svg11.dtd">
<svg version="1.1" id="Layer_1" xmlns="http://www.w3.org/2000/svg" xmlns:xlink="http://www.w3.org/1999/xlink" x="0px" y="0px"
	 width="178px" height="45px" viewBox="0 0 178 45" enable-background="new 0 0 178 45" xml:space="preserve">
<g enable-background="new    ">
	<path fill="#FFFFFF" d="M90.656,29.723V16.332l-5.305,13.391H84.05l-5.33-13.391v13.391h-3.04V12.379h4.289l4.732,11.909
		l4.707-11.909h4.289v17.344H90.656L90.656,29.723z"/>
	<path fill="#FFFFFF" d="M103.707,29.723v-1.379c-0.936,1.092-2.418,1.69-4.082,1.69c-2.027,0-4.342-1.403-4.342-4.16
		c0-2.912,2.287-4.108,4.342-4.108c1.716,0,3.146,0.546,4.082,1.612v-1.872c0-1.456-1.223-2.34-2.938-2.34
		c-1.404,0-2.652,0.521-3.72,1.612l-1.146-1.898c1.457-1.404,3.277-2.028,5.279-2.028c2.809,0,5.252,1.17,5.252,4.524v8.347H103.707
		z M103.707,26.861v-1.924c-0.65-0.857-1.82-1.299-2.99-1.299c-1.533,0-2.703,0.908-2.703,2.262c0,1.377,1.17,2.262,2.703,2.262
		C101.887,28.162,103.057,27.721,103.707,26.861z"/>
	<path fill="#FFFFFF" d="M108.518,32.945l1.273-1.975c1.039,1.17,2.34,1.61,4.004,1.61c1.794,0,3.719-0.832,3.719-3.511v-1.43
		c-0.963,1.273-2.393,2.105-4.031,2.105c-3.197,0-5.563-2.314-5.563-6.448c0-4.082,2.313-6.448,5.563-6.448
		c1.586,0,3.017,0.702,4.031,2.054v-1.742h2.729V29.07c0,4.523-3.379,5.746-6.447,5.746
		C111.662,34.818,110.076,34.35,108.518,32.945z M117.514,25.641v-4.707c-0.625-0.91-1.951-1.664-3.225-1.664
		c-2.186,0-3.562,1.612-3.562,4.03c0,2.419,1.379,4.005,3.562,4.005C115.562,27.305,116.889,26.551,117.514,25.641z"/>
	<path fill="#FFFFFF" d="M130.98,29.723V21.87c0-1.976-1.015-2.6-2.549-2.6c-1.377,0-2.574,0.832-3.224,1.664v8.789h-2.729V17.164
		h2.729v1.69c0.832-0.988,2.47-2.002,4.446-2.002c2.703,0,4.056,1.456,4.056,4.03v8.841H130.98z"/>
	<path fill="#FFFFFF" d="M135.634,13.939c0-0.936,0.755-1.69,1.69-1.69s1.689,0.754,1.689,1.69s-0.755,1.69-1.689,1.69
		C136.389,15.629,135.634,14.875,135.634,13.939z M135.945,29.723V17.164h2.729v12.559H135.945z"/>
	<path fill="#FFFFFF" d="M141.588,29.723V19.53h-2.08v-2.366h2.08v-0.702c0-2.808,1.664-4.342,3.952-4.342
		c0.884,0,1.638,0.156,2.21,0.468l-0.6,2.054c-0.284-0.182-0.648-0.286-1.092-0.286c-1.092,0-1.742,0.702-1.742,2.106v0.702h2.55
		v2.366h-2.55v10.193H141.588z M148.634,13.939c0-0.936,0.755-1.69,1.69-1.69s1.689,0.754,1.689,1.69s-0.755,1.69-1.689,1.69
		C149.389,15.629,148.634,14.875,148.634,13.939z M148.945,29.723V17.164h2.729v12.559H148.945z"/>
	<path fill="#FFFFFF" d="M153.157,23.43c0-3.796,2.679-6.578,6.475-6.578c2.47,0,3.927,1.04,4.812,2.236l-1.795,1.638
		c-0.701-0.988-1.664-1.456-2.887-1.456c-2.262,0-3.796,1.716-3.796,4.16c0,2.444,1.534,4.188,3.796,4.188
		c1.223,0,2.186-0.521,2.887-1.51l1.795,1.691c-0.885,1.17-2.342,2.235-4.812,2.235C155.836,30.034,153.157,27.227,153.157,23.43z"
		/>
	<path fill="#FFFFFF" d="M173.255,29.723v-1.379c-0.937,1.092-2.418,1.69-4.082,1.69c-2.026,0-4.342-1.403-4.342-4.16
		c0-2.912,2.288-4.108,4.342-4.108c1.718,0,3.146,0.546,4.082,1.612v-1.872c0-1.456-1.222-2.34-2.938-2.34
		c-1.403,0-2.651,0.521-3.719,1.612l-1.144-1.898c1.456-1.404,3.276-2.028,5.278-2.028c2.808,0,5.252,1.17,5.252,4.524v8.347
		H173.255z M173.255,26.861v-1.924c-0.649-0.857-1.819-1.299-2.989-1.299c-1.533,0-2.703,0.908-2.703,2.262
		c0,1.377,1.17,2.262,2.703,2.262C171.436,28.162,172.605,27.721,173.255,26.861z"/>
</g>
<path fill-rule="evenodd" clip-rule="evenodd" fill="#00A4DE" d="M3.633,16.55h4.825L15.8,40.678
	c0.266,0.873,0.715,1.677,1.295,2.391c-0.717-0.479-1.311-1.018-1.707-1.588L0.511,20.07C-0.834,18.134,0.57,16.55,3.633,16.55z"/>
<path fill-rule="evenodd" clip-rule="evenodd" fill="#00A4DE" d="M12.542,6.559h3.649v30.287L8.422,11.315
	C7.626,8.699,9.48,6.559,12.542,6.559z"/>
<path fill-rule="evenodd" clip-rule="evenodd" fill="#00A4DE" d="M23.249,0h32.872c3.062,0,5.567,2.506,5.567,5.567v33.865
	c0,3.062-2.506,5.567-5.567,5.567h-1.296V34.15v-0.996V10.85c0-2.106-1.725-3.831-3.832-3.831H28.376
	c-2.106,0-3.831,1.724-3.831,3.831V34.15c0,2.107,1.725,3.83,3.831,3.83h18.96L51.924,45H23.249c-3.062,0-5.567-2.506-5.567-5.567
	V5.567C17.682,2.505,20.187,0,23.249,0L23.249,0z M28.776,11.388v1.28h21.818v-1.28H28.776L28.776,11.388z M28.776,32.332v1.279
	h21.818v-1.279H28.776L28.776,32.332z M28.776,28.143v1.281h21.818v-1.281H28.776L28.776,28.143z M28.776,23.955v1.279h21.818
	v-1.279H28.776L28.776,23.955z M28.776,19.766v1.28h21.818v-1.28H28.776L28.776,19.766z M28.776,15.577v1.28h21.818v-1.28H28.776z"
	/>
</svg>
