<?xml version="1.0" encoding="utf-8"?>
<!-- Generator: Adobe Illustrator 15.0.0, SVG Export Plug-In . SVG Version: 6.00 Build 0)  -->
<!DOCTYPE svg PUBLIC "-//W3C//DTD SVG 1.1//EN" "http://www.w3.org/Graphics/SVG/1.1/DTD/svg11.dtd">
<svg version="1.1" id="Layer_1" xmlns="http://www.w3.org/2000/svg" xmlns:xlink="http://www.w3.org/1999/xlink" x="0px" y="0px"
	 width="450px" height="450px" viewBox="0 0 450 450" enable-background="new 0 0 450 450" xml:space="preserve">
<path opacity="0.05" fill-rule="evenodd" clip-rule="evenodd" fill="#020202" d="M-43.51,397.058l39.044-39.044l254.67,135.83
	c9.215,4.915,19.354,7.784,29.825,8.866c-9.677,1.933-18.84,2.371-26.664,0.964L-40.29,450.801
	C-66.843,446.027-68.293,421.841-43.51,397.058z"/>
<path opacity="0.05" fill-rule="evenodd" clip-rule="evenodd" fill="#020202" d="M-52.263,244.104l29.529-29.529l245.093,245.093
	L-47.118,315.932C-74.726,301.205-77.042,268.883-52.263,244.104z"/>
<path opacity="0.05" fill-rule="evenodd" clip-rule="evenodd" fill="#020202" d="M-18.699,104.383l266.012-266.012
	c24.774-24.775,65.332-24.775,90.107,0l274.052,274.052c24.776,24.775,24.775,65.333,0,90.107l-10.486,10.487l-87.801-87.8
	l-8.061-8.061l-180.499-180.5c-17.047-17.046-44.955-17.042-62.009,0.012L79.595,119.69c-17.046,17.046-17.054,44.951-0.004,62.001
	l188.56,188.56c17.055,17.054,44.951,17.038,61.997-0.008l153.433-153.433l93.933,19.678L345.461,468.543
	c-24.775,24.775-65.332,24.775-90.107-0.001L-18.699,194.49C-43.479,169.71-43.479,129.162-18.699,104.383L-18.699,104.383z
	 M118.181,151.811l10.361,10.361L305.105-14.392l-10.361-10.361L118.181,151.811L118.181,151.811z M287.672,321.302l10.353,10.353
	l176.563-176.563l-10.353-10.353L287.672,321.302L287.672,321.302z M253.769,287.399l10.368,10.368l176.564-176.564l-10.368-10.368
	L253.769,287.399L253.769,287.399z M219.881,253.512l10.353,10.353L406.798,87.3l-10.353-10.353L219.881,253.512L219.881,253.512z
	 M185.979,219.609l10.357,10.357L372.899,53.401l-10.356-10.356L185.979,219.609L185.979,219.609z M152.08,185.71l10.361,10.361
	L339.004,19.507l-10.36-10.361L152.08,185.71z"/>
</svg>
