<?xml version="1.0" encoding="utf-8"?>
<!-- Generator: Adobe Illustrator 15.0.0, SVG Export Plug-In . SVG Version: 6.00 Build 0)  -->
<!DOCTYPE svg PUBLIC "-//W3C//DTD SVG 1.1//EN" "http://www.w3.org/Graphics/SVG/1.1/DTD/svg11.dtd">
<svg version="1.1" id="Layer_1" xmlns="http://www.w3.org/2000/svg" xmlns:xlink="http://www.w3.org/1999/xlink" x="0px" y="0px"
	 width="450px" height="450px" viewBox="0 0 450 450" enable-background="new 0 0 450 450" xml:space="preserve">
<path opacity="0.06" fill="#020202" d="M151.921,149.448v137.797c0,54.989-38.018,84.915-84.916,84.915
	c-27.343,0-51.664-12.926-67.195-32.999c3.759,4.002,8.804,6.344,14.465,6.371c13.089,0.062,28.811-12.663,28.811-53.044
	c0-18.139,0-49.48,0-49.48C43.087,175.847,111.585,149.448,151.921,149.448z M191.72,184.245c0,0,0,90.104,0,108.243
	c0,40.381-15.72,53.106-28.809,53.043c-5.664-0.026-10.708-2.369-14.465-6.37c15.53,20.073,39.852,32.999,67.194,32.999
	c46.899,0,84.916-29.926,84.916-84.916V90.687C260.218,90.687,191.72,117.087,191.72,184.245z M340.355,150.771
	c0,0,0,123.578,0,141.717c0,40.381-15.724,53.105-28.81,53.043c-5.667-0.026-10.708-2.369-14.466-6.37
	c15.528,20.073,39.851,32.999,67.194,32.999c46.895,0,84.916-29.926,84.916-84.916V57.211
	C408.853,57.211,340.355,83.61,340.355,150.771z"/>
</svg>
